<?xml version="1.0" encoding="UTF-8"?>
<svg width="74px" height="82px" viewBox="0 0 74 82" version="1.1" xmlns="http://www.w3.org/2000/svg" xmlns:xlink="http://www.w3.org/1999/xlink">
    <title>Group 6</title>
    <g id="Page-1" stroke="none" stroke-width="1" fill="none" fill-rule="evenodd">
        <g id="iPhone-SE-Copy" transform="translate(-125.000000, -248.000000)">
            <g id="Group-11" transform="translate(32.000000, 248.000000)">
                <g id="Group-6" transform="translate(93.000000, 0.000000)">
                    <g id="Group-4">
                        <circle id="Oval" fill="#2A2A2A" cx="35.2741935" cy="35.2741935" r="35.2741935"></circle>
                        <g id="view_module_black_24dp" transform="translate(11.322581, 14.806452)">
                            <polygon id="Path" points="0 0 44.4193548 0 44.4193548 44.4193548 0 44.4193548"></polygon>
                            <path d="M7.83870968,19.9652605 L17.0607211,19.9652605 L17.0607211,8.70967742 L7.83870968,8.70967742 L7.83870968,19.9652605 Z M7.83870968,33.0967742 L17.0607211,33.0967742 L17.0607211,21.8411911 L7.83870968,21.8411911 L7.83870968,33.0967742 Z M18.9051233,33.0967742 L28.1271347,33.0967742 L28.1271347,21.8411911 L18.9051233,21.8411911 L18.9051233,33.0967742 Z M29.971537,33.0967742 L39.1935484,33.0967742 L39.1935484,21.8411911 L29.971537,21.8411911 L29.971537,33.0967742 Z M18.9051233,19.9652605 L28.1271347,19.9652605 L28.1271347,8.70967742 L18.9051233,8.70967742 L18.9051233,19.9652605 Z M29.971537,8.70967742 L29.971537,19.9652605 L39.1935484,19.9652605 L39.1935484,8.70967742 L29.971537,8.70967742 Z" id="Shape" fill="#FFFFFF" fill-rule="nonzero"></path>
                        </g>
                    </g>
                    <g id="Group-3" transform="translate(41.806452, 49.645161)">
                        <circle id="Oval" stroke="#ECECEC" fill="#FFFFFF" cx="15.6774194" cy="15.6774194" r="15.1774194"></circle>
                        <g id="add_black_24dp" transform="translate(5.225806, 5.225806)">
                            <polygon id="Path" points="0 0 20.9032258 0 20.9032258 20.9032258 0 20.9032258"></polygon>
                            <polygon id="Path" fill="#000000" fill-rule="nonzero" points="16.5483871 11.3225806 11.3225806 11.3225806 11.3225806 16.5483871 9.58064516 16.5483871 9.58064516 11.3225806 4.35483871 11.3225806 4.35483871 9.58064516 9.58064516 9.58064516 9.58064516 4.35483871 11.3225806 4.35483871 11.3225806 9.58064516 16.5483871 9.58064516"></polygon>
                        </g>
                    </g>
                </g>
            </g>
        </g>
    </g>
</svg>