<?xml version="1.0" encoding="UTF-8"?>
<svg width="27px" height="26px" viewBox="0 0 27 26" version="1.1" xmlns="http://www.w3.org/2000/svg" xmlns:xlink="http://www.w3.org/1999/xlink">
    <title>Group 17</title>
    <g id="Page-1" stroke="none" stroke-width="1" fill="none" fill-rule="evenodd">
        <g id="iPhone-SE-Copy" transform="translate(-12.000000, -15.000000)">
            <g id="Group-2">
                <g id="Group-16">
                    <g id="Group-8" transform="translate(10.000000, 12.000000)">
                        <g id="Group-17" transform="translate(0.160000, 0.680000)">
                            <path d="M10.2399998,5 L20.4704342,5 C23.9166909,5 26.7104339,7.79374306 26.7104339,11.2399998 L26.7104339,20.0799994 C26.7104339,23.5262562 23.9166909,26.3199992 20.4704342,26.3199992 L10.2399998,26.3199992 C6.79374306,26.3199992 4,23.5262562 4,20.0799994 L4,11.2399998 C4,7.79374306 6.79374306,5 10.2399998,5 Z" id="Rectangle" fill="#486E1A" transform="translate(15.355217, 15.660000) rotate(32.000000) translate(-15.355217, -15.660000) "></path>
                            <g id="schedule_white_24dp" transform="translate(9.200000, 9.680000)">
                                <polygon id="Path" points="0 0 12.4799995 0 12.4799995 12.4799995 0 12.4799995"></polygon>
                                <path d="M6.23479977,1.03999996 C3.36439988,1.03999996 1.03999996,3.36959988 1.03999996,6.23999977 C1.03999996,9.11039967 3.36439988,11.4399996 6.23479977,11.4399996 C9.11039967,11.4399996 11.4399996,9.11039967 11.4399996,6.23999977 C11.4399996,3.36959988 9.11039967,1.03999996 6.23479977,1.03999996 Z M6.23999977,10.3999996 C3.94159986,10.3999996 2.07999992,8.53839969 2.07999992,6.23999977 C2.07999992,3.94159986 3.94159986,2.07999992 6.23999977,2.07999992 C8.53839969,2.07999992 10.3999996,3.94159986 10.3999996,6.23999977 C10.3999996,8.53839969 8.53839969,10.3999996 6.23999977,10.3999996 Z" id="Shape" fill="#FFFFFF" fill-rule="nonzero"></path>
                                <polygon id="Path" fill="#FFFFFF" fill-rule="nonzero" points="6.49999976 3.63999987 5.71999979 3.63999987 5.71999979 6.75999975 8.44999969 8.39799969 8.83999968 7.75839972 6.49999976 6.36999977"></polygon>
                            </g>
                        </g>
                    </g>
                </g>
            </g>
        </g>
    </g>
</svg>